<?xml version="1.0" standalone="no"?>
<!DOCTYPE svg PUBLIC "-//W3C//DTD SVG 20010904//EN"
 "http://www.w3.org/TR/2001/REC-SVG-20010904/DTD/svg10.dtd">
<svg version="1.0" xmlns="http://www.w3.org/2000/svg"
 width="512.000000pt" height="512.000000pt" viewBox="0 0 512.000000 512.000000"
 preserveAspectRatio="xMidYMid meet">
<metadata>
Created by potrace 1.14, written by Peter Selinger 2001-2017
</metadata>
<g transform="translate(0.000000,512.000000) scale(0.100000,-0.100000)"
fill="#000000" stroke="none">
<path d="M0 4895 l0 -225 30 0 c25 0 30 -4 30 -25 0 -20 5 -25 25 -25 21 0 25
-5 25 -30 0 -27 3 -30 30 -30 25 0 30 -4 30 -25 0 -20 5 -25 25 -25 21 0 25
-5 25 -30 0 -27 3 -30 30 -30 25 0 30 -4 30 -25 0 -21 5 -25 30 -25 27 0 30
-3 30 -30 0 -25 4 -30 25 -30 21 0 25 -5 25 -30 0 -27 3 -30 30 -30 25 0 30
-4 30 -25 0 -20 5 -25 25 -25 21 0 25 -5 25 -30 0 -27 3 -30 30 -30 30 0 30
-1 30 -55 l0 -55 55 0 55 0 0 -55 0 -55 110 0 110 0 0 -30 c0 -27 3 -30 30
-30 25 0 30 -4 30 -25 0 -24 3 -25 55 -25 54 0 55 0 55 -30 0 -25 4 -30 25
-30 20 0 25 -5 25 -25 0 -25 1 -25 85 -25 l85 0 0 -30 c0 -27 3 -30 30 -30 25
0 30 -4 30 -25 l0 -25 135 0 135 0 0 -55 c0 -54 0 -55 30 -55 27 0 30 3 30 30
l0 30 120 0 120 0 0 30 0 30 90 0 90 0 0 -30 0 -30 145 0 145 0 0 -30 0 -30
60 0 60 0 0 30 0 30 60 0 60 0 0 -30 c0 -27 3 -30 30 -30 27 0 30 -3 30 -30 0
-27 3 -30 30 -30 l30 0 0 -90 0 -90 -30 0 -30 0 0 -60 0 -60 -30 0 -30 0 0
-85 0 -85 30 0 c27 0 30 -3 30 -30 0 -27 3 -30 30 -30 27 0 30 -3 30 -30 0
-27 3 -30 30 -30 27 0 30 -3 30 -30 0 -27 3 -30 30 -30 27 0 30 -3 30 -30 0
-27 3 -30 30 -30 l30 0 0 -270 0 -270 -30 0 c-27 0 -30 -3 -30 -30 0 -27 -3
-30 -30 -30 -27 0 -30 -3 -30 -30 l0 -30 -60 0 -60 0 0 -30 c0 -27 -3 -30 -30
-30 -25 0 -30 -4 -30 -25 l0 -25 -475 0 -475 0 0 25 c0 25 -1 25 -90 25 l-90
0 0 30 0 30 -60 0 -60 0 0 30 c0 27 -3 30 -30 30 -27 0 -30 3 -30 30 0 27 -3
30 -30 30 -27 0 -30 3 -30 30 l0 30 60 0 60 0 0 -30 0 -30 120 0 120 0 0 -30
0 -30 385 0 385 0 0 30 0 30 120 0 120 0 0 30 c0 27 3 30 30 30 l30 0 0 120 0
120 -30 0 c-27 0 -30 3 -30 30 0 27 -3 30 -30 30 l-30 0 0 90 0 90 -90 0 -90
0 0 -90 0 -90 90 0 90 0 0 -30 0 -30 -90 0 -90 0 0 -30 c0 -27 -3 -30 -30 -30
-27 0 -30 -3 -30 -30 l0 -30 -445 0 -445 0 0 30 0 30 -60 0 -60 0 0 30 c0 27
-3 30 -30 30 l-30 0 0 120 0 120 60 0 60 0 0 60 0 60 30 0 c27 0 30 3 30 30 0
27 3 30 30 30 30 0 30 1 30 55 0 54 0 55 30 55 28 0 30 3 30 35 0 32 2 35 30
35 l30 0 0 115 0 115 -30 0 -30 0 0 -80 0 -80 -220 0 -220 0 0 -25 c0 -20 -5
-25 -25 -25 -24 0 -25 3 -25 55 0 52 1 55 25 55 20 0 25 5 25 25 l0 25 190 0
190 0 0 55 0 55 -215 0 -215 0 0 30 0 30 245 0 245 0 0 25 0 25 -275 0 -275 0
0 -25 c0 -20 -5 -25 -25 -25 -21 0 -25 -5 -25 -30 0 -27 -3 -30 -30 -30 -25 0
-30 -4 -30 -25 0 -24 -3 -25 -55 -25 -54 0 -55 0 -55 -30 0 -27 -3 -30 -30
-30 -30 0 -30 -1 -30 -55 0 -52 -1 -55 -25 -55 -20 0 -25 -5 -25 -25 0 -24 -3
-25 -55 -25 -54 0 -55 0 -55 -30 0 -27 -3 -30 -30 -30 l-30 0 0 -165 0 -165
-25 0 c-21 0 -25 -5 -25 -30 0 -25 4 -30 25 -30 l25 0 0 -250 0 -250 -25 0
c-21 0 -25 -5 -25 -30 0 -30 -1 -30 -55 -30 l-55 0 0 55 c0 54 0 55 -30 55
l-30 0 0 140 0 140 30 0 c27 0 30 3 30 30 0 27 -3 30 -30 30 -27 0 -30 -3 -30
-30 l0 -30 -85 0 -85 0 0 30 c0 25 -4 30 -25 30 -21 0 -25 -5 -25 -30 0 -25 4
-30 25 -30 l25 0 0 -140 0 -140 -25 0 c-20 0 -25 -5 -25 -25 0 -21 -5 -25 -30
-25 l-30 0 0 -165 0 -165 30 0 30 0 0 -60 c0 -57 1 -60 25 -60 21 0 25 5 25
30 0 27 3 30 30 30 30 0 30 1 30 55 0 52 1 55 25 55 20 0 25 -5 25 -25 0 -21
5 -25 30 -25 27 0 30 -3 30 -30 0 -27 3 -30 30 -30 l30 0 0 85 c0 84 0 85 25
85 24 0 25 -3 25 -55 0 -54 0 -55 30 -55 27 0 30 -3 30 -30 0 -30 1 -30 55
-30 54 0 55 0 55 30 0 30 1 30 55 30 54 0 55 0 55 -30 0 -25 4 -30 25 -30 21
0 25 -5 25 -30 0 -25 -4 -30 -25 -30 -24 0 -25 -3 -25 -55 l0 -55 -55 0 -55 0
0 -140 0 -140 -55 0 c-52 0 -55 -1 -55 -25 0 -21 -5 -25 -30 -25 -25 0 -30 4
-30 25 0 20 -5 25 -25 25 -25 0 -25 1 -25 85 l0 85 -60 0 c-57 0 -60 -1 -60
-25 0 -21 5 -25 30 -25 27 0 30 -3 30 -30 0 -30 -1 -30 -55 -30 -54 0 -55 0
-55 -30 0 -25 4 -30 25 -30 24 0 25 -3 25 -55 0 -54 0 -55 30 -55 25 0 30 -4
30 -25 0 -21 -5 -25 -30 -25 -27 0 -30 -3 -30 -30 0 -30 -1 -30 -55 -30 -54 0
-55 0 -55 30 0 25 -4 30 -25 30 -20 0 -25 5 -25 25 0 21 -5 25 -30 25 l-30 0
0 -80 0 -80 30 0 c27 0 30 -3 30 -30 0 -27 -3 -30 -30 -30 l-30 0 0 -85 0 -85
30 0 c27 0 30 3 30 30 0 30 1 30 55 30 54 0 55 0 55 -30 0 -27 -3 -30 -30 -30
-25 0 -30 -4 -30 -25 0 -24 -3 -25 -55 -25 l-55 0 0 -390 0 -390 55 0 55 0 0
90 0 90 30 0 30 0 0 120 0 120 30 0 c30 0 30 1 30 55 0 54 0 55 30 55 28 0 30
3 30 35 0 32 2 35 30 35 27 0 30 3 30 30 0 27 3 30 30 30 25 0 30 4 30 25 0
21 5 25 30 25 28 0 30 3 30 35 0 32 2 35 30 35 25 0 30 4 30 25 0 21 5 25 30
25 28 0 30 3 30 35 0 32 2 35 30 35 25 0 30 4 30 25 0 21 5 25 30 25 27 0 30
3 30 30 0 27 3 30 30 30 27 0 30 3 30 30 0 25 4 30 25 30 l25 0 0 210 0 210
35 0 35 0 0 120 0 120 30 0 30 0 0 85 c0 84 0 85 25 85 22 0 25 4 25 35 0 31
-3 35 -25 35 -16 0 -25 6 -25 15 0 9 9 15 25 15 16 0 25 -6 25 -15 0 -10 10
-15 30 -15 27 0 30 -3 30 -30 0 -27 3 -30 30 -30 27 0 30 -3 30 -30 0 -27 3
-30 30 -30 l30 0 0 -120 0 -120 30 0 c27 0 30 -3 30 -30 0 -27 3 -30 30 -30
27 0 30 -3 30 -30 l0 -30 -60 0 -60 0 0 30 0 30 -90 0 -90 0 0 -60 0 -60 60 0
60 0 0 -30 0 -30 -85 0 -85 0 0 -30 c0 -25 4 -30 25 -30 21 0 25 -5 25 -30 l0
-30 90 0 90 0 0 -90 0 -90 -30 0 -30 0 0 -60 0 -60 -150 0 -150 0 0 -25 c0
-24 2 -25 65 -25 l65 0 0 -35 c0 -31 3 -35 25 -35 24 0 25 -3 25 -60 l0 -60
-145 0 -145 0 0 35 0 35 -60 0 -60 0 0 -35 c0 -32 2 -35 30 -35 25 0 30 -4 30
-25 0 -25 1 -25 85 -25 l85 0 0 -90 c0 -89 0 -90 -25 -90 -24 0 -25 -3 -25
-60 l0 -60 -30 0 -30 0 0 -90 0 -90 -30 0 -30 0 0 -90 0 -90 1010 0 1010 0 0
60 0 60 35 0 35 0 0 90 c0 89 0 90 25 90 24 0 25 3 25 60 l0 60 30 0 c27 0 30
3 30 30 0 27 3 30 30 30 l30 0 0 60 0 60 30 0 c27 0 30 3 30 30 0 27 3 30 30
30 l30 0 0 60 0 60 30 0 c25 0 30 4 30 25 0 21 5 25 30 25 28 0 30 3 30 35 0
32 2 35 30 35 25 0 30 4 30 25 0 21 5 25 30 25 27 0 30 3 30 30 0 27 3 30 30
30 27 0 30 3 30 30 l0 30 420 0 420 0 0 30 0 30 120 0 120 0 0 30 0 30 -450 0
-450 0 0 30 0 30 60 0 60 0 0 90 0 90 30 0 c27 0 30 3 30 30 0 27 3 30 30 30
l30 0 0 180 0 180 30 0 30 0 0 60 0 60 60 0 60 0 0 90 0 90 60 0 60 0 0 30 c0
27 3 30 30 30 27 0 30 3 30 30 0 27 3 30 30 30 27 0 30 3 30 30 l0 30 120 0
120 0 0 25 0 25 235 0 235 0 0 -25 c0 -24 -3 -25 -60 -25 l-60 0 0 -30 0 -30
-120 0 -120 0 0 -30 0 -30 -90 0 -90 0 0 -30 0 -30 -85 0 -85 0 0 -30 c0 -27
-3 -30 -30 -30 -27 0 -30 -3 -30 -30 0 -30 1 -30 55 -30 54 0 55 0 55 -30 0
-28 3 -30 35 -30 32 0 35 -2 35 -30 l0 -30 -60 0 -60 0 0 -30 c0 -27 -3 -30
-30 -30 -27 0 -30 -3 -30 -30 0 -30 1 -30 55 -30 54 0 55 0 55 30 l0 30 60 0
60 0 0 30 0 30 150 0 150 0 0 -30 c0 -27 3 -30 30 -30 l30 0 0 -60 0 -60 -30
0 c-27 0 -30 -3 -30 -30 l0 -30 -60 0 -60 0 0 -30 c0 -27 -3 -30 -30 -30 -27
0 -30 -3 -30 -30 l0 -30 -60 0 -60 0 0 -90 0 -90 60 0 60 0 0 -30 0 -30 65 0
65 0 0 -30 c0 -25 4 -30 25 -30 21 0 25 -5 25 -30 l0 -30 -60 0 -60 0 0 -60 0
-60 -55 0 c-54 0 -55 0 -55 -30 l0 -30 -60 0 -60 0 0 -30 0 -30 -120 0 -120 0
0 -25 c0 -21 -5 -25 -30 -25 -28 0 -30 -3 -30 -35 0 -32 -2 -35 -30 -35 l-30
0 0 -115 0 -115 -30 0 c-28 0 -30 -3 -30 -35 0 -32 -2 -35 -30 -35 -25 0 -30
-4 -30 -25 0 -21 -5 -25 -30 -25 l-30 0 0 -60 0 -60 -30 0 c-27 0 -30 -3 -30
-30 0 -27 -3 -30 -30 -30 l-30 0 0 -60 0 -60 -30 0 c-27 0 -30 -3 -30 -30 0
-27 -3 -30 -30 -30 l-30 0 0 -60 0 -60 805 0 805 0 0 1225 0 1225 -30 0 c-25
0 -30 4 -30 25 0 21 -5 25 -30 25 -27 0 -30 3 -30 30 0 27 -3 30 -30 30 -27 0
-30 3 -30 30 0 27 -3 30 -30 30 l-30 0 0 65 0 65 30 0 30 0 0 85 0 85 -30 0
-30 0 0 90 0 90 -30 0 -30 0 0 60 0 60 -30 0 -30 0 0 90 0 90 -30 0 c-29 0
-30 1 -30 50 l0 50 70 0 70 0 0 30 0 30 85 0 85 0 0 30 c0 27 3 30 30 30 27 0
30 -3 30 -30 0 -25 4 -30 25 -30 25 0 25 1 25 85 0 84 0 85 -25 85 -21 0 -25
-5 -25 -30 l0 -30 -60 0 c-57 0 -60 -1 -60 -25 l0 -25 -110 0 -110 0 0 -30 c0
-25 -4 -30 -25 -30 -24 0 -25 3 -25 55 l0 55 80 0 80 0 0 30 c0 27 3 30 30 30
25 0 30 4 30 25 l0 25 -110 0 -110 0 0 -25 c0 -25 -1 -25 -85 -25 l-85 0 0
-30 0 -30 -85 0 c-69 0 -85 3 -85 15 0 13 -37 15 -275 15 -238 0 -275 2 -275
15 0 10 -10 15 -30 15 -23 0 -30 -4 -30 -20 0 -13 -7 -20 -20 -20 -18 0 -20 7
-20 60 l0 60 -30 0 -30 0 0 100 0 100 50 0 c49 0 50 -1 50 -30 0 -27 3 -30 30
-30 l30 0 0 -110 0 -110 25 0 c20 0 25 5 25 25 0 21 5 25 30 25 27 0 30 3 30
30 0 25 4 30 25 30 20 0 25 5 25 25 0 21 5 25 30 25 27 0 30 3 30 30 0 25 4
30 25 30 21 0 25 5 25 30 0 27 3 30 30 30 25 0 30 4 30 25 0 21 5 25 30 25 30
0 30 1 30 55 0 52 1 55 25 55 21 0 25 5 25 30 0 27 3 30 30 30 25 0 30 4 30
25 0 20 5 25 25 25 21 0 25 5 25 30 0 27 3 30 30 30 27 0 30 3 30 30 0 30 1
30 55 30 l55 0 0 -60 c0 -57 1 -60 25 -60 21 0 25 5 25 30 l0 30 60 0 60 0 0
30 c0 25 4 30 25 30 20 0 25 5 25 25 0 21 5 25 30 25 27 0 30 3 30 30 0 25 4
30 25 30 20 0 25 5 25 25 0 20 -5 25 -25 25 -20 0 -25 -5 -25 -25 0 -21 -5
-25 -30 -25 -30 0 -30 1 -30 55 l0 55 55 0 c52 0 55 1 55 25 0 21 5 25 30 25
30 0 30 -1 30 -55 0 -52 1 -55 25 -55 21 0 25 5 25 30 l0 30 60 0 60 0 0 140
0 140 25 0 25 0 0 110 0 110 -2560 0 -2560 0 0 -225z m5010 30 c0 -21 -5 -25
-30 -25 -27 0 -30 -3 -30 -30 0 -25 -4 -30 -25 -30 -24 0 -25 -3 -25 -55 0
-54 0 -55 -30 -55 -27 0 -30 -3 -30 -30 0 -30 -1 -30 -55 -30 -52 0 -55 -1
-55 -25 0 -20 -5 -25 -25 -25 -24 0 -25 3 -25 55 0 52 1 55 25 55 20 0 25 5
25 25 0 24 3 25 55 25 54 0 55 0 55 30 0 27 3 30 30 30 27 0 30 3 30 30 0 25
4 30 25 30 20 0 25 5 25 25 0 21 5 25 30 25 25 0 30 -4 30 -25z m-2440 -35 l0
-30 110 0 110 0 0 -30 0 -30 85 0 c84 0 85 0 85 -25 0 -24 3 -25 55 -25 54 0
55 0 55 -30 0 -30 1 -30 55 -30 52 0 55 -1 55 -25 0 -21 5 -25 30 -25 27 0 30
-3 30 -30 0 -30 1 -30 55 -30 52 0 55 -1 55 -25 0 -24 3 -25 55 -25 54 0 55 0
55 -30 0 -27 3 -30 30 -30 27 0 30 -3 30 -30 0 -30 1 -30 55 -30 52 0 55 -1
55 -25 0 -24 3 -25 55 -25 l55 0 0 -85 0 -85 -55 0 c-54 0 -55 0 -55 30 0 27
-3 30 -30 30 -25 0 -30 4 -30 25 0 24 -3 25 -55 25 -54 0 -55 0 -55 30 0 25
-4 30 -25 30 -20 0 -25 5 -25 25 0 21 -5 25 -30 25 -27 0 -30 3 -30 30 0 30
-1 30 -55 30 -54 0 -55 0 -55 30 0 30 -1 30 -55 30 -52 0 -55 1 -55 25 0 24
-3 25 -55 25 -54 0 -55 0 -55 30 0 27 -3 30 -30 30 -25 0 -30 4 -30 25 0 25
-1 25 -85 25 l-85 0 0 30 0 30 -80 0 c-79 0 -80 0 -80 25 0 24 -3 25 -55 25
-54 0 -55 0 -55 30 l0 30 -85 0 -85 0 0 -30 c0 -30 -1 -30 -55 -30 -52 0 -55
-1 -55 -25 0 -25 -1 -25 -85 -25 l-85 0 0 -30 c0 -30 -1 -30 -55 -30 -52 0
-55 -1 -55 -25 0 -21 -5 -25 -30 -25 -30 0 -30 -1 -30 -55 0 -52 -1 -55 -25
-55 -24 0 -25 -3 -25 -60 l0 -60 -30 0 -30 0 0 140 0 140 30 0 c27 0 30 3 30
30 0 25 4 30 25 30 20 0 25 5 25 25 0 21 5 25 30 25 27 0 30 3 30 30 0 30 1
30 55 30 54 0 55 0 55 30 l0 30 250 0 250 0 0 -30z m-160 -100 c8 -11 19 -20
25 -20 6 0 17 9 25 20 17 24 40 26 40 5 0 -8 -4 -15 -10 -15 -5 0 -10 -7 -10
-15 0 -9 -7 -18 -16 -22 -15 -5 -15 -7 0 -15 9 -5 16 -16 16 -23 0 -8 5 -15
10 -15 6 0 10 -4 10 -10 0 -15 -27 -12 -44 5 -8 8 -17 15 -21 15 -4 0 -13 -7
-21 -15 -17 -17 -54 -20 -54 -5 0 6 5 10 10 10 6 0 10 6 10 14 0 8 10 18 23
22 l22 7 -22 10 c-13 6 -23 16 -23 24 0 7 -4 13 -10 13 -5 0 -10 7 -10 15 0
22 33 18 50 -5z m7 -180 c6 -23 33 -27 33 -5 0 16 47 32 58 20 4 -4 1 -10 -5
-12 -7 -3 -13 -9 -13 -15 0 -6 -7 -16 -16 -23 -15 -10 -14 -14 10 -38 14 -14
26 -31 26 -37 0 -18 -35 -11 -50 10 -8 11 -20 20 -27 20 -6 0 -15 -9 -18 -20
-6 -20 -45 -29 -45 -10 0 6 12 23 26 37 24 24 25 28 10 38 -9 7 -16 17 -16 24
0 6 -4 11 -10 11 -5 0 -10 5 -10 10 0 19 42 10 47 -10z m-1967 -20 c0 -30 1
-30 55 -30 52 0 55 -1 55 -25 0 -20 5 -25 25 -25 21 0 25 -5 25 -30 0 -27 3
-30 30 -30 25 0 30 -4 30 -25 l0 -25 110 0 110 0 0 -30 0 -30 85 0 85 0 0 -30
c0 -25 4 -30 25 -30 20 0 25 -5 25 -25 0 -20 -5 -25 -25 -25 -20 0 -25 5 -25
25 0 25 -1 25 -85 25 -84 0 -85 0 -85 -25 0 -24 3 -25 55 -25 54 0 55 0 55
-30 0 -27 3 -30 30 -30 25 0 30 -4 30 -25 0 -20 5 -25 25 -25 24 0 25 -3 25
-55 0 -52 -1 -55 -25 -55 -20 0 -25 5 -25 25 0 21 -5 25 -30 25 -27 0 -30 3
-30 30 l0 30 -140 0 -140 0 0 25 c0 24 -3 25 -55 25 -54 0 -55 0 -55 30 0 25
-4 30 -25 30 -24 0 -25 3 -25 55 0 54 0 55 -30 55 -27 0 -30 3 -30 30 0 30 -1
30 -55 30 -52 0 -55 1 -55 25 0 20 -5 25 -25 25 -24 0 -25 3 -25 55 0 52 1 55
25 55 21 0 25 5 25 30 0 27 3 30 30 30 27 0 30 -3 30 -30z m1790 -65 c0 -52 1
-55 25 -55 21 0 25 -5 25 -30 l0 -30 140 0 140 0 0 30 c0 27 3 30 30 30 30 0
30 1 30 55 l0 55 55 0 c52 0 55 -1 55 -25 0 -24 3 -25 55 -25 54 0 55 0 55
-30 0 -25 4 -30 25 -30 21 0 25 -5 25 -30 l0 -30 60 0 c57 0 60 -1 60 -25 l0
-25 -505 0 -505 0 0 55 c0 54 0 55 30 55 27 0 30 3 30 30 0 27 3 30 30 30 25
0 30 4 30 25 0 24 3 25 55 25 l55 0 0 -55z m890 -195 c0 -25 4 -30 25 -30 20
0 25 -5 25 -25 0 -24 -3 -25 -55 -25 l-55 0 0 55 c0 54 0 55 30 55 27 0 30 -3
30 -30z m-230 -305 l0 -55 -415 0 -415 0 0 55 0 55 415 0 415 0 0 -55z m1110
-45 c0 -30 -1 -30 -55 -30 -54 0 -55 0 -55 30 0 30 1 30 55 30 54 0 55 0 55
-30z m-2050 -40 c0 -25 -4 -30 -25 -30 -21 0 -25 5 -25 30 0 25 4 30 25 30 21
0 25 -5 25 -30z m1850 -390 c0 -27 -3 -30 -30 -30 -27 0 -30 3 -30 30 0 27 3
30 30 30 27 0 30 -3 30 -30z m480 0 l0 -30 -210 0 -210 0 0 30 0 30 210 0 210
0 0 -30z m120 0 c0 -30 1 -30 55 -30 l55 0 0 -90 0 -90 -30 0 c-27 0 -30 -3
-30 -30 0 -25 -4 -30 -25 -30 -21 0 -25 -5 -25 -30 0 -28 -3 -30 -35 -30 -32
0 -35 -2 -35 -30 0 -25 -4 -30 -25 -30 -21 0 -25 -5 -25 -30 0 -28 -3 -30 -35
-30 -32 0 -35 -2 -35 -30 0 -30 -1 -30 -55 -30 l-55 0 0 -60 0 -60 -60 0 -60
0 0 -30 c0 -27 -3 -30 -30 -30 -27 0 -30 -3 -30 -30 0 -27 -3 -30 -30 -30 -25
0 -30 -4 -30 -25 0 -21 -5 -25 -30 -25 -25 0 -30 4 -30 25 0 21 5 25 30 25 27
0 30 3 30 30 0 27 3 30 30 30 27 0 30 3 30 30 0 27 3 30 30 30 27 0 30 3 30
30 0 27 3 30 30 30 27 0 30 3 30 30 0 27 3 30 30 30 27 0 30 3 30 30 0 27 3
30 30 30 27 0 30 3 30 30 0 25 4 30 25 30 21 0 25 5 25 30 0 28 3 30 35 30 32
0 35 2 35 30 0 25 4 30 25 30 21 0 25 5 25 30 0 28 3 30 35 30 l35 0 0 60 0
60 -35 0 -35 0 0 60 0 60 35 0 c32 0 35 -2 35 -30z m-1080 -10 c0 -27 3 -30
30 -30 l30 0 0 -90 0 -90 -30 0 c-27 0 -30 -3 -30 -30 0 -30 -1 -30 -55 -30
l-55 0 0 60 0 60 30 0 c27 0 30 -3 30 -30 0 -25 4 -30 25 -30 25 0 25 1 25 90
0 89 0 90 -25 90 -21 0 -25 -5 -25 -30 0 -27 -3 -30 -30 -30 l-30 0 0 60 0 60
55 0 c54 0 55 0 55 -30z m-2270 -175 c0 -21 -5 -25 -30 -25 -27 0 -30 -3 -30
-30 0 -25 -4 -30 -25 -30 -20 0 -25 -5 -25 -25 0 -21 -5 -25 -30 -25 -27 0
-30 -3 -30 -30 0 -25 -4 -30 -25 -30 -20 0 -25 -5 -25 -25 0 -21 -5 -25 -30
-25 -27 0 -30 -3 -30 -30 0 -27 -3 -30 -30 -30 -27 0 -30 -3 -30 -30 0 -30 -1
-30 -55 -30 -52 0 -55 -1 -55 -25 0 -20 -5 -25 -25 -25 -20 0 -25 5 -25 25 0
20 5 25 25 25 21 0 25 5 25 30 0 27 3 30 30 30 27 0 30 3 30 30 0 30 1 30 55
30 l55 0 0 55 c0 54 0 55 30 55 25 0 30 4 30 25 0 20 5 25 25 25 21 0 25 5 25
30 0 27 3 30 30 30 25 0 30 4 30 25 0 24 3 25 55 25 52 0 55 -1 55 -25z m0
-275 c0 -27 -3 -30 -30 -30 -27 0 -30 -3 -30 -30 0 -25 -4 -30 -25 -30 -20 0
-25 -5 -25 -25 0 -24 -3 -25 -55 -25 l-55 0 0 -85 0 -85 -30 0 -30 0 0 85 0
85 30 0 c25 0 30 4 30 25 0 20 5 25 25 25 21 0 25 5 25 30 0 27 3 30 30 30 27
0 30 3 30 30 0 30 1 30 55 30 54 0 55 0 55 -30z m190 -280 c0 -16 -4 -30 -10
-30 -5 0 -10 14 -10 30 0 17 5 30 10 30 6 0 10 -13 10 -30z m-640 -280 l0
-250 -25 0 -25 0 0 250 0 250 25 0 25 0 0 -250z m3200 180 c0 -27 -3 -30 -30
-30 -27 0 -30 -3 -30 -30 0 -27 -3 -30 -30 -30 -27 0 -30 -3 -30 -30 0 -27 -3
-30 -30 -30 -27 0 -30 3 -30 30 0 27 3 30 30 30 27 0 30 3 30 30 0 27 3 30 30
30 27 0 30 3 30 30 0 27 3 30 30 30 27 0 30 -3 30 -30z m-3030 -10 c0 -27 -3
-30 -30 -30 -27 0 -30 3 -30 30 0 27 3 30 30 30 27 0 30 -3 30 -30z m220 0 c0
-25 -4 -30 -25 -30 -21 0 -25 5 -25 30 0 25 4 30 25 30 21 0 25 -5 25 -30z
m-220 -115 c0 -21 5 -25 30 -25 27 0 30 -3 30 -30 l0 -30 -60 0 -60 0 0 55 c0
54 0 55 30 55 25 0 30 -4 30 -25z m280 -30 l0 -55 -55 0 -55 0 0 55 0 55 55 0
55 0 0 -55z m130 0 c0 -30 -4 -55 -10 -55 -5 0 -10 25 -10 55 0 30 5 55 10 55
6 0 10 -25 10 -55z m3450 -25 c0 -27 3 -30 30 -30 25 0 30 -4 30 -25 l0 -25
-240 0 -240 0 0 -35 0 -35 -55 0 c-52 0 -55 -1 -55 -25 0 -21 -5 -25 -30 -25
-27 0 -30 -3 -30 -30 0 -27 -3 -30 -30 -30 -27 0 -30 -3 -30 -30 0 -27 -3 -30
-30 -30 l-30 0 0 60 0 60 30 0 c25 0 30 4 30 25 0 21 5 25 30 25 28 0 30 3 30
35 0 32 2 35 30 35 25 0 30 4 30 25 0 24 3 25 55 25 54 0 55 0 55 30 l0 30
210 0 210 0 0 -30z m-3860 -280 c0 -27 3 -30 30 -30 25 0 30 -4 30 -25 0 -24
-3 -25 -60 -25 l-60 0 0 55 c0 54 0 55 30 55 27 0 30 -3 30 -30z m220 0 c0
-27 3 -30 30 -30 25 0 30 -4 30 -25 0 -24 -3 -25 -55 -25 l-55 0 0 55 c0 52 1
55 25 55 21 0 25 -5 25 -30z m-390 -165 l0 -135 -25 0 -25 0 0 135 0 135 25 0
25 0 0 -135z m580 125 c0 -5 -2 -10 -4 -10 -3 0 -8 5 -11 10 -3 6 -1 10 4 10
6 0 11 -4 11 -10z m-300 -205 c0 -54 0 -55 30 -55 23 0 30 -4 30 -20 0 -16 -7
-20 -30 -20 -28 0 -30 -3 -30 -35 0 -30 -3 -35 -24 -35 -19 0 -25 -6 -28 -27
-2 -22 -9 -29 -30 -31 -28 -3 -28 -2 -28 52 0 56 0 56 -30 56 -30 0 -30 1 -30
55 0 54 0 55 30 55 27 0 30 3 30 30 0 30 1 30 55 30 l55 0 0 -55z m-390 -85
c0 -79 0 -80 -25 -80 -25 0 -25 1 -25 80 0 79 0 80 25 80 25 0 25 -1 25 -80z
m330 -285 l0 -85 -30 0 c-25 0 -30 -4 -30 -25 0 -20 -5 -25 -25 -25 l-25 0 0
-110 0 -110 -25 0 -25 0 0 165 0 165 55 0 c54 0 55 0 55 30 0 27 -3 30 -30 30
-25 0 -30 4 -30 25 0 24 3 25 55 25 l55 0 0 -85z m1490 -295 l0 -270 -30 0
-30 0 0 90 0 90 -120 0 -120 0 0 120 0 120 120 0 120 0 0 60 0 60 30 0 30 0 0
-270z m-360 -30 l0 -240 -30 0 -30 0 0 120 0 120 -60 0 -60 0 0 30 c0 27 -3
30 -30 30 -27 0 -30 3 -30 30 0 27 3 30 30 30 27 0 30 3 30 30 l0 30 60 0 60
0 0 30 c0 27 3 30 30 30 l30 0 0 -240z m780 210 l0 -30 145 0 145 0 0 -30 c0
-27 -3 -30 -30 -30 -27 0 -30 -3 -30 -30 0 -27 -3 -30 -30 -30 -27 0 -30 -3
-30 -30 l0 -30 -85 0 -85 0 0 -30 0 -30 -185 0 -185 0 0 90 0 90 150 0 150 0
0 60 0 60 35 0 c32 0 35 -2 35 -30z m950 0 c0 -27 -3 -30 -30 -30 -27 0 -30 3
-30 30 0 27 3 30 30 30 27 0 30 -3 30 -30z m-2450 -180 l0 -30 -60 0 -60 0 0
30 0 30 60 0 60 0 0 -30z m-850 -115 c0 -52 -1 -55 -25 -55 -24 0 -25 3 -25
55 0 52 1 55 25 55 24 0 25 -3 25 -55z m60 -170 c0 -54 0 -55 -30 -55 -30 0
-30 1 -30 55 0 54 0 55 30 55 30 0 30 -1 30 -55z m1346 -59 c8 -8 14 -24 14
-35 0 -17 6 -21 35 -21 19 0 35 -4 35 -10 0 -5 -11 -10 -25 -10 -21 0 -25 -5
-25 -30 0 -16 -4 -30 -10 -30 -5 0 -10 -16 -10 -35 0 -19 5 -35 10 -35 6 0 10
9 10 20 0 15 7 20 25 20 18 0 25 -5 25 -20 0 -17 7 -20 45 -20 38 0 45 3 45
20 0 11 5 20 10 20 6 0 10 -9 10 -20 0 -17 7 -20 40 -20 33 0 40 3 40 20 0 11
7 20 15 20 8 0 15 -9 15 -20 0 -17 7 -20 40 -20 l40 0 0 45 c0 33 4 45 15 45
9 0 15 -9 15 -25 0 -14 5 -25 10 -25 6 0 10 -9 10 -20 0 -11 5 -20 10 -20 6 0
10 25 10 55 0 48 2 55 20 55 18 0 20 -7 20 -55 0 -52 1 -55 25 -55 23 0 25 4
25 45 0 25 5 45 10 45 6 0 10 -20 10 -45 0 -38 3 -45 20 -45 18 0 20 7 20 65
l0 65 -120 0 -120 0 0 -55 c0 -30 -4 -55 -10 -55 -5 0 -10 18 -10 41 0 44 -17
69 -49 69 -14 0 -21 -6 -21 -20 0 -11 -4 -20 -10 -20 -5 0 -10 -16 -10 -35 0
-19 -4 -35 -10 -35 -5 0 -10 11 -10 24 0 13 -6 27 -12 30 -10 5 -10 7 0 12 6
3 12 14 12 25 0 16 -7 19 -41 19 -39 0 -69 17 -69 39 0 6 11 11 25 11 16 0 25
-6 25 -15 0 -11 11 -15 40 -15 39 0 40 1 40 35 0 19 5 35 10 35 6 0 10 -16 10
-35 l0 -35 70 0 c68 0 70 1 70 25 0 14 3 25 6 25 10 0 34 -28 34 -39 0 -6 5
-11 10 -11 6 0 10 16 10 35 0 31 3 35 25 35 18 0 25 -5 25 -20 0 -11 -7 -20
-15 -20 -8 0 -15 -7 -15 -15 0 -10 11 -15 35 -15 33 0 35 2 35 35 0 19 5 35
10 35 6 0 10 -16 10 -35 0 -31 3 -35 25 -35 22 0 25 4 25 35 0 19 5 35 10 35
6 0 10 -16 10 -35 0 -19 5 -35 10 -35 6 0 10 16 10 35 0 19 3 35 6 35 13 0 34
-30 34 -49 0 -12 6 -21 15 -21 10 0 15 11 15 35 0 19 5 35 10 35 6 0 10 -13
10 -30 l0 -30 90 0 90 0 0 -85 0 -85 -60 0 -60 0 0 -60 0 -60 -480 0 -480 0 0
59 0 59 65 7 65 7 0 44 c0 24 5 44 10 44 6 0 10 9 10 20 0 17 -7 20 -45 20
l-45 0 0 45 c0 44 1 45 31 45 17 0 37 -6 45 -14z m104 4 c0 -5 -9 -10 -20 -10
-11 0 -20 5 -20 10 0 6 9 10 20 10 11 0 20 -4 20 -10z m130 -10 c0 -13 -7 -20
-20 -20 -13 0 -20 7 -20 20 0 13 7 20 20 20 13 0 20 -7 20 -20z m150 14 c0
-11 -29 -34 -44 -34 -19 0 -20 6 -3 25 12 14 47 21 47 9z m-1790 -89 c0 -21 5
-25 30 -25 27 0 30 -3 30 -30 0 -27 -3 -30 -30 -30 -27 0 -30 3 -30 30 l0 30
-110 0 -110 0 0 25 0 25 110 0 110 0 0 -25z m1530 -40 c0 -25 -4 -45 -10 -45
-5 0 -10 20 -10 45 0 25 5 45 10 45 6 0 10 -20 10 -45z m-170 -20 c0 -33 -4
-45 -15 -45 -11 0 -15 12 -15 45 0 33 4 45 15 45 11 0 15 -12 15 -45z m240 35
c0 -5 -4 -10 -10 -10 -5 0 -10 5 -10 10 0 6 5 10 10 10 6 0 10 -4 10 -10z
m570 -385 l0 -25 -480 0 -480 0 0 25 0 25 480 0 480 0 0 -25z m-960 -115 c0
-27 -3 -30 -30 -30 l-30 0 0 -60 0 -60 -30 0 c-27 0 -30 -3 -30 -30 0 -27 -3
-30 -30 -30 -27 0 -30 3 -30 30 0 27 3 30 30 30 l30 0 0 60 0 60 30 0 c27 0
30 3 30 30 0 27 3 30 30 30 27 0 30 -3 30 -30z m1020 -90 c0 -57 1 -60 25 -60
21 0 25 -5 25 -30 0 -25 -4 -30 -25 -30 -21 0 -25 5 -25 30 0 27 -3 30 -30 30
l-30 0 0 60 0 60 30 0 30 0 0 -60z"/>
<path d="M2430 855 c0 -37 4 -65 10 -65 6 0 10 20 10 45 0 25 5 45 10 45 6 0
10 -11 10 -25 0 -14 5 -25 10 -25 6 0 10 -9 10 -20 0 -11 5 -20 10 -20 6 0 10
9 10 20 0 11 6 20 13 20 7 0 19 -9 27 -20 15 -21 50 -28 50 -10 0 6 9 10 20
10 17 0 20 7 20 41 0 50 -18 69 -64 69 -29 0 -36 -4 -36 -20 0 -11 -7 -20 -15
-20 -8 0 -15 9 -15 20 0 17 -7 20 -40 20 l-40 0 0 -65z m170 10 c0 -28 -4 -35
-20 -35 -23 0 -27 32 -7 55 20 23 27 17 27 -20z"/>
<path d="M5070 3980 l0 -30 -60 0 -60 0 0 -55 c0 -54 0 -55 30 -55 25 0 30 4
30 25 0 24 3 25 55 25 l55 0 0 60 c0 57 -1 60 -25 60 -21 0 -25 -5 -25 -30z"/>
<path d="M0 3475 c0 -24 3 -25 55 -25 52 0 55 1 55 25 0 24 -3 25 -55 25 -52
0 -55 -1 -55 -25z"/>
<path d="M220 3475 c0 -24 2 -25 64 -25 62 0 63 0 58 25 -4 23 -8 25 -63 25
-56 0 -59 -1 -59 -25z"/>
<path d="M5010 3475 c0 -21 -5 -25 -30 -25 -27 0 -30 -3 -30 -30 0 -27 3 -30
30 -30 27 0 30 3 30 30 0 27 3 30 30 30 25 0 30 4 30 25 0 21 -5 25 -30 25
-25 0 -30 -4 -30 -25z"/>
<path d="M450 3420 c0 -30 1 -30 55 -30 54 0 55 0 55 30 0 30 -1 30 -55 30
-54 0 -55 0 -55 -30z"/>
<path d="M293 3393 c9 -2 25 -2 35 0 9 3 1 5 -18 5 -19 0 -27 -2 -17 -5z"/>
<path d="M1720 3360 c0 -25 -4 -30 -25 -30 l-25 0 0 -150 0 -150 -30 0 c-25 0
-30 -4 -30 -25 0 -21 5 -25 30 -25 25 0 30 4 30 25 l0 25 120 0 120 0 0 -25
c0 -20 5 -25 25 -25 20 0 25 5 25 25 0 21 5 25 30 25 28 0 30 3 30 35 0 32 -2
35 -30 35 -25 0 -30 4 -30 25 0 24 -3 25 -60 25 l-60 0 0 120 0 120 -60 0 -60
0 0 -30z"/>
<path d="M2260 3360 c0 -27 -3 -30 -30 -30 l-30 0 0 -115 0 -115 90 0 90 0 0
145 0 145 -60 0 -60 0 0 -30z"/>
<path d="M0 3310 c0 -27 3 -30 30 -30 27 0 30 3 30 30 0 27 -3 30 -30 30 -27
0 -30 -3 -30 -30z"/>
<path d="M2260 2950 c0 -27 -3 -30 -30 -30 l-30 0 0 -60 0 -60 30 0 c27 0 30
3 30 30 0 27 3 30 30 30 l30 0 0 60 0 60 -30 0 c-27 0 -30 -3 -30 -30z"/>
<path d="M1550 2860 l0 -60 60 0 60 0 0 -30 c0 -27 -3 -30 -30 -30 l-30 0 0
-90 0 -90 -30 0 -30 0 0 -60 0 -60 30 0 30 0 0 60 0 60 30 0 30 0 0 90 c0 89
0 90 25 90 21 0 25 5 25 30 0 28 3 30 35 30 32 0 35 -2 35 -30 0 -25 4 -30 25
-30 25 0 25 -1 25 -90 l0 -90 35 0 35 0 0 -60 c0 -57 1 -60 25 -60 24 0 25 3
25 60 0 57 -1 60 -25 60 -25 0 -25 1 -25 90 l0 90 -35 0 c-32 0 -35 2 -35 30
l0 30 90 0 90 0 0 30 c0 28 3 30 35 30 32 0 35 2 35 30 l0 30 -270 0 -270 0 0
-60z m290 -30 c0 -25 -4 -30 -25 -30 -21 0 -25 5 -25 30 0 25 4 30 25 30 21 0
25 -5 25 -30z"/>
<path d="M170 2785 c0 -54 0 -55 -30 -55 -27 0 -30 -3 -30 -30 0 -25 -4 -30
-25 -30 -21 0 -25 -5 -25 -30 0 -30 1 -30 55 -30 52 0 55 -1 55 -25 0 -20 5
-25 25 -25 20 0 25 5 25 25 0 24 3 25 60 25 l60 0 0 30 c0 27 -3 30 -30 30
-27 0 -30 3 -30 30 0 27 -3 30 -30 30 -30 0 -30 1 -30 55 0 52 -1 55 -25 55
-24 0 -25 -3 -25 -55z m50 -145 c0 -25 -4 -30 -25 -30 -21 0 -25 5 -25 30 0
25 4 30 25 30 21 0 25 -5 25 -30z"/>
<path d="M4290 1760 l0 -30 -60 0 -60 0 0 -30 0 -30 -90 0 -90 0 0 -30 0 -30
-60 0 -60 0 0 -30 0 -30 120 0 120 0 0 30 c0 30 1 30 55 30 54 0 55 0 55 30
l0 30 60 0 60 0 0 30 0 30 90 0 90 0 0 30 0 30 -115 0 -115 0 0 -30z"/>
<path d="M230 1585 c0 -20 5 -25 25 -25 20 0 25 5 25 25 0 20 -5 25 -25 25
-20 0 -25 -5 -25 -25z"/>
<path d="M390 1585 c0 -21 5 -25 30 -25 25 0 30 4 30 25 0 21 -5 25 -30 25
-25 0 -30 -4 -30 -25z"/>
</g>
</svg>
