<?xml version="1.0" standalone="no"?>
<!DOCTYPE svg PUBLIC "-//W3C//DTD SVG 20010904//EN"
 "http://www.w3.org/TR/2001/REC-SVG-20010904/DTD/svg10.dtd">
<svg version="1.0" xmlns="http://www.w3.org/2000/svg"
 width="800.000000pt" height="800.000000pt" viewBox="0 0 800.000000 800.000000"
 preserveAspectRatio="xMidYMid meet">
<metadata>
Created by potrace 1.14, written by Peter Selinger 2001-2017
</metadata>
<g transform="translate(0.000000,800.000000) scale(0.100000,-0.100000)"
fill="#000000" stroke="none">
<path d="M0 4000 l0 -4000 761 0 762 0 -7 305 -8 305 129 0 c70 0 185 3 256 7
l127 6 -6 -285 c-4 -156 -4 -296 0 -311 l6 -27 566 0 565 0 -8 78 c-8 81 -10
1578 -2 1586 3 3 43 -8 89 -24 151 -51 377 -68 695 -51 116 7 255 18 310 25
55 7 102 12 104 10 13 -11 20 -340 11 -599 -12 -323 -25 -493 -65 -790 -14
-104 -25 -200 -25 -212 l0 -23 829 0 829 0 6 22 c3 13 6 109 6 214 l0 190 168
-19 c92 -10 170 -21 173 -25 4 -4 23 -61 43 -127 20 -66 48 -150 62 -187 l26
-68 799 0 799 0 0 4000 0 4000 -4000 0 -4000 0 0 -4000z m3877 2893 c58 -75
304 -454 350 -539 l56 -106 -32 -79 c-17 -44 -73 -180 -124 -302 -180 -429
-179 -425 -157 -452 7 -8 25 -15 41 -15 36 0 55 28 106 160 20 52 54 136 76
185 21 50 93 221 159 380 95 230 270 629 282 643 2 1 45 -107 96 -240 142
-371 211 -527 375 -853 139 -279 152 -300 178 -303 63 -7 73 38 27 128 -16 33
-30 63 -30 68 0 18 100 172 189 291 51 69 131 184 178 255 47 72 107 165 134
206 27 41 49 71 49 65 0 -5 -29 -154 -64 -330 -63 -315 -113 -589 -163 -895
-14 -85 -29 -165 -34 -177 -15 -40 -49 -51 -224 -73 -93 -11 -213 -27 -267
-35 -320 -48 -604 -71 -1078 -85 -190 -6 -502 -17 -695 -26 -444 -20 -717 -8
-970 42 -103 20 -290 80 -304 97 -6 8 -31 92 -56 187 -25 95 -61 228 -80 294
-40 143 -91 356 -140 591 -19 94 -56 262 -81 373 -25 112 -44 206 -42 208 6 5
116 -145 193 -266 179 -277 279 -423 348 -510 76 -93 76 -95 60 -120 -9 -14
-37 -56 -61 -93 -39 -59 -44 -72 -36 -95 11 -31 55 -42 81 -20 34 27 219 320
497 786 252 421 290 480 301 465 32 -46 165 -292 226 -418 73 -151 339 -778
339 -798 0 -26 31 -57 59 -57 52 0 64 40 37 118 -8 23 -80 196 -160 385 -81
189 -146 347 -146 351 0 4 26 38 58 74 60 69 297 374 378 488 25 35 48 64 51
64 3 0 12 -8 20 -17z m-228 -75 c-45 -59 -54 -67 -39 -38 12 24 59 80 68 80 2
0 -11 -19 -29 -42z m1411 -38 c-12 -16 -24 -30 -26 -30 -7 0 5 20 24 43 24 27
25 20 2 -13z m233 -69 c22 -37 190 -395 227 -483 l28 -67 -76 -108 c-43 -59
-81 -108 -86 -108 -24 0 -314 528 -304 555 5 15 182 240 188 240 3 0 13 -13
23 -29z m-2947 -298 c51 -106 88 -193 82 -193 -6 0 -31 15 -57 34 -25 19 -93
62 -151 96 -58 34 -106 63 -107 64 -4 3 97 207 111 225 8 10 12 9 20 -10 6
-13 52 -111 102 -216z m2766 -288 c34 -66 83 -172 109 -235 l48 -115 -22 -37
c-11 -21 -24 -38 -27 -38 -9 0 -188 370 -239 493 l-41 98 22 30 22 29 33 -52
c18 -29 61 -107 95 -173z m-2920 78 c136 -82 258 -169 258 -184 0 -11 -133
-229 -140 -229 -9 1 -146 184 -219 292 l-71 108 11 45 c6 25 16 45 22 45 6 0
68 -35 139 -77z m3323 -1509 c59 -496 45 -963 -45 -1454 -58 -321 -192 -847
-223 -876 -6 -7 -48 -22 -91 -34 -81 -23 -143 -48 -391 -162 -184 -85 -249
-119 -315 -165 -160 -110 -160 -110 -140 -200 6 -30 8 -59 3 -63 -26 -26 -554
-53 -770 -40 -181 11 -238 22 -329 65 l-70 34 -13 65 c-17 84 -43 111 -100
101 -31 -5 -64 1 -141 25 -92 28 -102 34 -112 61 -7 22 -43 52 -143 120 -189
128 -381 284 -515 419 -115 115 -266 294 -295 349 l-15 29 38 6 c52 7 54 7
180 10 62 2 115 6 118 9 4 3 22 43 40 88 18 45 58 124 89 177 68 117 74 136
45 152 -18 9 -25 8 -41 -6 -23 -21 -115 -182 -153 -267 -23 -52 -27 -57 -45
-48 -11 6 -33 11 -50 11 -17 0 -31 4 -31 8 0 8 71 114 150 225 37 52 35 79 -8
85 -18 3 -32 -11 -79 -77 -2 -3 -21 13 -43 34 -25 25 -40 49 -42 69 -3 27 -7
31 -33 31 -17 0 -56 16 -90 37 -33 21 -67 41 -74 46 -18 10 18 126 139 442
103 270 142 383 196 570 25 85 46 156 48 157 4 5 206 -41 206 -47 -1 -3 -24
-16 -52 -30 -74 -36 -160 -127 -203 -213 -163 -335 77 -717 450 -717 230 0
438 171 486 397 35 173 -34 370 -170 481 l-52 42 118 0 c65 0 258 7 428 15
171 8 353 15 405 15 l95 0 -49 -31 c-73 -46 -143 -124 -181 -204 -163 -333 78
-715 450 -715 318 0 559 309 480 615 -35 136 -129 258 -248 321 l-58 31 143 7
c180 8 372 28 653 66 266 36 429 57 433 54 1 -1 9 -55 17 -120z m-2820 -69
c46 -45 26 -116 -38 -138 -28 -10 -86 19 -97 48 -15 41 -12 54 19 86 38 37 82
39 116 4z m1530 0 c46 -45 26 -116 -38 -138 -28 -10 -86 19 -97 48 -15 41 -12
54 19 86 38 37 82 39 116 4z m-1351 -239 c99 -65 92 -327 -13 -439 -81 -88
-208 -73 -247 28 -13 35 -16 66 -12 145 4 90 9 107 42 175 36 72 70 108 111
117 30 6 91 -7 119 -26z m1530 0 c99 -65 92 -327 -13 -439 -81 -88 -208 -73
-247 28 -13 35 -16 66 -12 145 4 90 9 107 42 175 36 72 70 108 111 117 30 6
91 -7 119 -26z m-2601 -976 c26 -16 47 -33 47 -38 0 -5 -20 -44 -45 -88 -25
-43 -48 -87 -51 -98 -13 -40 -24 10 -24 109 0 100 6 145 19 145 4 0 28 -13 54
-30z m184 -151 c7 -3 -7 -34 -35 -81 -47 -76 -47 -76 -102 -86 -30 -6 -56 -9
-58 -7 -4 3 59 131 96 193 l25 43 31 -29 c17 -16 36 -31 43 -33z m-277 -1074
c238 -16 453 -33 517 -41 l41 -5 -18 -42 c-30 -68 -68 -211 -104 -391 -19 -92
-35 -168 -37 -170 -2 -1 -89 6 -192 16 -173 18 -191 18 -213 3 -14 -9 -24 -25
-24 -39 0 -45 28 -56 176 -71 77 -8 160 -15 187 -15 55 0 52 10 32 -134 -20
-145 -45 -416 -45 -497 l0 -66 -47 -7 c-27 -3 -142 -6 -258 -7 l-210 -1 -7 84
c-4 45 -17 220 -28 386 -19 276 -20 306 -6 321 21 23 20 50 -1 74 -15 16 -19
48 -25 216 -3 108 -7 242 -7 299 l-1 102 28 0 c15 0 124 -7 242 -15z m4268
-171 l182 -6 0 -299 c0 -165 -3 -299 -7 -299 -5 0 -75 7 -158 15 -82 8 -153
15 -157 15 -4 0 -12 26 -18 58 -25 126 -82 328 -120 423 -22 56 -40 103 -40
106 0 3 30 2 68 -1 37 -3 149 -8 250 -12z m45 -698 c70 -7 130 -16 133 -19 4
-4 13 -89 20 -189 11 -154 38 -373 70 -565 8 -51 21 -49 -181 -25 l-140 17 -7
130 c-12 224 -43 531 -64 638 -7 32 -14 32 169 13z m-4626 -1168 c-3 -7 -5 -2
-5 12 0 14 2 19 5 13 2 -7 2 -19 0 -25z"/>
<path d="M3723 6528 c-47 -73 -106 -155 -130 -182 -51 -57 -54 -84 -19 -154
12 -26 56 -130 96 -232 40 -102 79 -193 88 -202 8 -10 25 -18 37 -18 32 0 48
23 95 137 23 56 70 149 105 208 35 59 67 120 70 136 6 25 -5 51 -58 147 -36
64 -75 137 -87 162 -41 82 -75 130 -93 130 -12 0 -46 -44 -104 -132z m165
-173 c34 -63 62 -118 62 -123 0 -5 -22 -44 -48 -88 -27 -44 -61 -107 -76 -139
-20 -44 -29 -56 -36 -45 -4 8 -33 79 -64 157 l-57 142 49 65 c27 35 60 83 73
105 12 23 25 41 28 41 3 0 34 -52 69 -115z"/>
<path d="M2843 5883 c-7 -2 -27 -30 -45 -61 -57 -102 -161 -266 -199 -315 -41
-52 -41 -45 -1 -157 11 -30 30 -93 42 -140 34 -137 78 -273 96 -298 12 -17 24
-22 47 -20 27 3 37 13 77 80 26 42 76 117 112 165 102 138 148 210 148 233 0
12 -15 56 -34 98 -18 43 -48 118 -66 167 -73 200 -123 270 -177 248z m63 -274
c9 -18 17 -53 18 -78 1 -43 -1 -46 -23 -46 -22 0 -27 8 -44 64 -10 35 -16 69
-13 77 10 25 45 16 62 -17z m19 -199 c0 -16 -6 -26 -18 -28 -19 -4 -32 20 -23
44 9 25 41 13 41 -16z"/>
<path d="M4568 5849 c-16 -9 -140 -211 -220 -359 -41 -77 -42 -71 42 -234 32
-61 79 -160 106 -220 49 -109 71 -134 109 -120 32 13 275 401 275 440 0 28
-216 459 -242 484 -24 22 -44 25 -70 9z m65 -282 c22 -42 17 -67 -12 -67 -28
0 -63 68 -49 93 15 27 39 17 61 -26z m60 -139 c7 -21 -4 -38 -23 -38 -23 0
-34 16 -26 35 7 18 43 20 49 3z"/>
<path d="M4633 3565 c-118 -33 -227 -114 -267 -200 -21 -44 -11 -80 27 -94 14
-5 42 -39 65 -78 46 -75 48 -83 30 -83 -7 0 -36 -11 -64 -24 l-52 -24 -12 26
c-6 15 -37 64 -67 110 -59 89 -91 114 -118 92 -23 -19 -19 -31 30 -97 25 -33
71 -109 102 -169 64 -121 89 -140 115 -87 9 20 30 35 71 51 l59 23 23 -25 c13
-14 28 -26 33 -26 14 0 32 23 32 43 0 17 5 19 41 13 97 -15 219 -102 310 -219
46 -60 60 -72 84 -72 21 0 33 7 45 27 14 25 13 31 -5 65 -33 63 -111 149 -180
200 -47 35 -72 62 -91 99 -14 27 -56 95 -92 150 -60 88 -71 99 -97 99 -49 0
-42 -28 30 -137 36 -55 65 -101 63 -103 -2 -2 -25 1 -53 6 -27 5 -63 7 -80 3
-30 -5 -32 -3 -89 92 l-59 98 57 53 c39 36 72 57 108 68 66 19 213 19 296 0
63 -15 155 -56 167 -75 12 -20 64 -11 81 14 23 36 2 73 -64 112 -114 69 -357
104 -479 69z"/>
<path d="M2745 3269 c-181 -9 -268 -37 -275 -89 -5 -34 1 -50 24 -65 22 -15
29 -15 88 2 54 15 102 18 343 17 286 -1 502 -17 665 -51 41 -8 88 -17 103 -20
60 -11 90 65 44 111 -39 39 -320 81 -612 91 -82 3 -172 7 -200 8 -27 2 -108 0
-180 -4z"/>
</g>
</svg>
